# xmcd
#
# Track frame offsets:
#	150
#	15024
#	28824
#	42067
#	55568
#	90029
#	103754
#	117779
#	131579
#	146202
#	159289
#	173838
#	188387
#	203424
#	217481
#	231991
#	244315
#	257887
#	270797
#	290194
#
# Disc length: 4188
#
# Revision: 1
# Processed by: cddbd v1.5.1PL0 Copyright (c) Steve Scherf et al.
# Submitted via: CDex 1.51
# Normalized: r0:DSETVAR1,TDELIM( - )
#
DISCID=0d105a14
DTITLE=Various Artist - Hot and Cool Jazz Vol.3 CD2
DYEAR=1900
DGENRE=Jazz
TTITLE0=Woody Herman - Four Brothers
TTITLE1=Louis Armstrong - Perdido Street Blues
TTITLE2=Nat King Cole - (Get Your Kicks On)Route 66
TTITLE3=Duke Ellington - In A Jam
TTITLE4=Thelonious Monk - Blue Monk
TTITLE5=Joe Venuti-Eddie Lang - After You've Gone
TTITLE6=Artie Shaw - S'Wonderful
TTITLE7=Charlie Parker - Parkers Mood
TTITLE8=Benny Goodman/Peggy Lee - Why Dont You Do Right
TTITLE9=Django Reinhardt - Ain't Misbehavin
TTITLE10=Count Basie/Lester Young - Lester Leaps In
TTITLE11=Illinois Jacquet/Hampton - Flyin Home
TTITLE12=Artie Shaw - Summit Ridge Drive
TTITLE13=Louis Armstrong and Ella Fitzgerald - Dream A Little Dream Of Me
TTITLE14=Benny Goodman - Memories Of You
TTITLE15=The Rhythm Aces - Jazz Battle
TTITLE16=Fats Waller/Jam Session - The Blues
TTITLE17=Teddy Wilson/Billie Holiday - When Youre Smilin
TTITLE18=Bechet-Spanier Big Four - Thats A Plenty
TTITLE19=Miles Davis - Round About Midnight
EXTD=
EXTT0=
EXTT1=
EXTT2=
EXTT3=
EXTT4=
EXTT5=
EXTT6=
EXTT7=
EXTT8=
EXTT9=
EXTT10=
EXTT11=
EXTT12=
EXTT13=
EXTT14=
EXTT15=
EXTT16=
EXTT17=
EXTT18=
EXTT19=
PLAYORDER=
